<?xml version="1.0" encoding="UTF-8"?>
<svg version="1.1" xmlns="http://www.w3.org/2000/svg" width="215" height="194">
<path d="M0 0 C6.46276809 4.88187559 11.95539288 10.57833771 15.5390625 17.91796875 C15.5390625 18.57796875 15.5390625 19.23796875 15.5390625 19.91796875 C16.27769531 19.51964844 17.01632813 19.12132813 17.77734375 18.7109375 C32.3394219 11.1060911 46.52355645 8.20201794 62.703125 12.88671875 C77.71667342 18.3461909 87.78732486 28.43156095 94.85546875 42.546875 C99.68427718 54.37493188 99.58208467 70.51966119 94.80859375 82.34375 C88.21958817 95.70422592 79.17698071 106.37504051 64.9765625 111.98046875 C61.5390625 112.91796875 61.5390625 112.91796875 57.5390625 112.91796875 C57.755625 113.68238281 57.9721875 114.44679688 58.1953125 115.234375 C62.36073874 131.25969541 61.81603768 146.7739988 53.32421875 161.25390625 C45.92689576 172.29323727 36.00128014 180.38889267 23.171875 184.2578125 C6.77634292 187.23721564 -8.08875336 185.14787822 -21.984375 175.77734375 C-27.53653092 171.60884814 -31.96954971 166.92315575 -35.4609375 160.91796875 C-35.4609375 160.25796875 -35.4609375 159.59796875 -35.4609375 158.91796875 C-36.83765625 159.64113281 -36.83765625 159.64113281 -38.2421875 160.37890625 C-39.48154602 161.01736367 -40.72114227 161.65535977 -41.9609375 162.29296875 C-42.56164062 162.61007813 -43.16234375 162.9271875 -43.78125 163.25390625 C-55.56871798 169.27303883 -69.70463687 169.89333424 -82.3984375 166.35546875 C-96.16809094 161.4129609 -105.61406964 152.69481228 -112.91796875 140.23828125 C-116.55003276 132.42244731 -117.99865448 125.13697281 -117.8984375 116.54296875 C-117.89086426 115.62539795 -117.88329102 114.70782715 -117.87548828 113.76245117 C-117.70144876 106.57538103 -116.64294555 100.43114148 -113.4609375 93.91796875 C-113.0484375 93.06332031 -112.6359375 92.20867187 -112.2109375 91.328125 C-105.6966668 79.3174384 -96.01058175 71.78021243 -83.4609375 66.91796875 C-81.47263712 66.52076262 -79.47342562 66.16495593 -77.4609375 65.91796875 C-77.73808594 65.18191406 -78.01523438 64.44585937 -78.30078125 63.6875 C-78.66300781 62.71167969 -79.02523437 61.73585938 -79.3984375 60.73046875 C-79.75808594 59.76753906 -80.11773437 58.80460937 -80.48828125 57.8125 C-84.58325087 45.62626511 -83.26638124 31.7729436 -78.2421875 20.08203125 C-71.66019007 7.02773635 -61.58442626 -2.00876841 -48.0859375 -7.51953125 C-31.5352979 -12.51065102 -14.14075555 -9.55621665 0 0 Z " fill="#FCFCFC" transform="translate(117.4609375,9.08203125)"/>
<path d="M0 0 C6.72562222 4.19069271 11.17386356 10.04607924 13.0625 17.73046875 C14.68925058 28.02838093 13.82931307 36.65731672 8.21484375 45.53125 C4.58064106 50.30936607 0.31670787 53.03716722 -5.5 54.5 C-13.13830565 55.40798486 -20.257368 55.38434503 -26.5 50.5 C-32.8185881 44.73029935 -36.14501979 39.29473272 -36.77734375 30.75390625 C-37.10103212 21.46569597 -36.65468121 13.26482494 -30.8125 5.6875 C-22.94749646 -2.5211202 -10.58858163 -4.63250446 0 0 Z " fill="#090909" transform="translate(175.5,45.5)"/>
<path d="M0 0 C6.34803433 3.86072957 9.84117121 9.50065346 12.29296875 16.39453125 C12.54863009 19.1408289 12.67799849 21.60334498 12.60546875 24.33203125 C12.59273926 25.03714844 12.58000977 25.74226563 12.56689453 26.46875 C12.31354322 35.51401988 10.56973265 41.68642575 4.29296875 48.39453125 C-1.57852536 52.97429666 -5.7353704 53.55654729 -13.08203125 53.64453125 C-14.36851563 53.6703125 -15.655 53.69609375 -16.98046875 53.72265625 C-23.43438368 53.15438701 -27.76034855 50.12587496 -32.09375 45.5234375 C-38.15259908 37.52810396 -38.6242932 28.07164486 -37.70703125 18.39453125 C-36.51843651 11.3054126 -33.13530618 6.07298611 -27.70703125 1.39453125 C-19.16424077 -4.32752652 -9.20094454 -4.13969365 0 0 Z " fill="#090909" transform="translate(63.70703125,99.60546875)"/>
<path d="M0 0 C0.81210938 -0.01611328 1.62421875 -0.03222656 2.4609375 -0.04882812 C8.17319422 -0.05340525 12.38750732 1.03087963 17.625 3.3125 C16.75 9.0625 16.75 9.0625 15.625 11.3125 C14.47 10.9825 13.315 10.6525 12.125 10.3125 C7.56177813 9.31702007 3.03340129 8.98986469 -1.625 8.875 C-2.31013672 8.84083984 -2.99527344 8.80667969 -3.70117188 8.77148438 C-7.55968754 8.73760473 -9.24610837 9.21353571 -12.3359375 11.5859375 C-15.69051743 16.07156353 -14.69749294 19.2488171 -14.125 24.6875 C-12.62507937 27.93732804 -8.01345572 28.9229782 -4.85546875 30.265625 C-3.99759766 30.63816406 -3.13972656 31.01070312 -2.25585938 31.39453125 C-0.47583143 32.16643604 1.30800093 32.92963265 3.09570312 33.68359375 C9.9860329 36.7035887 16.5763645 40.07646345 19.625 47.3125 C20.3894847 53.79572738 20.07077602 59.64364268 16.625 65.3125 C11.26059851 71.46193586 5.1303737 73.95286928 -2.8984375 74.59375 C-10.86717113 74.78771512 -17.84743021 73.94167198 -25.375 71.3125 C-25.375 68.3425 -25.375 65.3725 -25.375 62.3125 C-24.67117187 62.5290625 -23.96734375 62.745625 -23.2421875 62.96875 C-14.55905675 65.41725684 -4.67515771 67.53555193 3.921875 63.9296875 C7.11577694 62.01888489 8.21898627 60.74942245 9.625 57.3125 C10.23827661 53.01956373 10.23954833 51.13829932 7.625 47.625 C3.16725029 44.18881793 -1.70277348 42.07503529 -6.79296875 39.75390625 C-13.6400462 36.54939403 -19.04150284 33.75083864 -23.375 27.3125 C-25.38638947 21.2783316 -25.45256502 14.54744967 -22.6875 8.8125 C-15.8795541 1.45255849 -9.70808371 -0.03816071 0 0 Z " fill="#070707" transform="translate(129.375,105.6875)"/>
<path d="M0 0 C4.51336857 2.72505272 6.73842901 4.90700585 8.3125 10 C8.69345477 13.0242398 8.79059259 16.01613578 8.8125 19.0625 C8.81886475 19.83021729 8.82522949 20.59793457 8.83178711 21.38891602 C8.6928401 27.6334767 7.44640909 32.54277135 3.25 37.375 C-0.94079126 40.88985719 -5.18144832 40.39825896 -10.4765625 40.328125 C-13.4081914 40.02854249 -14.96249059 39.81891541 -17.3125 38.125 C-23.08458569 30.53015041 -23.75487451 21.28615827 -22.6875 12 C-21.08713583 6.57080758 -18.4532062 3.13533303 -13.6875 0 C-9.32067664 -2.18341168 -4.51484119 -1.22436371 0 0 Z " fill="#FBFBFB" transform="translate(170.6875,52)"/>
<path d="M0 0 C4.14855193 3.13671 5.92000755 7.01002266 7.5625 11.9375 C8.33489566 21.78871028 7.844535 29.58495625 1.5625 37.4375 C-2.70408351 40.63743764 -8.30269147 40.57935107 -13.4375 39.9375 C-19.03546083 37.13851958 -21.49001608 33.77995177 -23.4375 27.9375 C-23.5865798 25.17378995 -23.66859829 22.4518758 -23.6875 19.6875 C-23.708125 18.94886719 -23.72875 18.21023437 -23.75 17.44921875 C-23.79707458 10.77639727 -22.35364848 6.18897446 -17.9375 1 C-12.76200246 -2.92043939 -5.82805763 -1.80139963 0 0 Z " fill="#F9F9F9" transform="translate(59.4375,106.0625)"/>
<path d="M0 0 C3.3 0 6.6 0 10 0 C11.98004193 5.46101581 13.95541364 10.92368977 15.92651367 16.38793945 C16.5974384 18.24582254 17.26962753 20.10324954 17.94311523 21.96020508 C18.91203825 24.63243041 19.87637311 27.30627349 20.83984375 29.98046875 C21.14091537 30.80773972 21.441987 31.63501068 21.75218201 32.48735046 C23.12239991 36.30356824 24.37141166 39.97632437 25 44 C29.00399945 34.33122598 32.48336373 24.4723263 36.01733398 14.62524414 C36.81515612 12.40424151 37.6163595 10.18448178 38.41796875 7.96484375 C38.6627446 7.27954086 38.90752045 6.59423798 39.15971375 5.88816833 C40.88677039 1.11322961 40.88677039 1.11322961 42 0 C43.51928038 -0.07179964 45.04167482 -0.08392007 46.5625 -0.0625 C47.38878906 -0.05347656 48.21507812 -0.04445313 49.06640625 -0.03515625 C49.70449219 -0.02355469 50.34257813 -0.01195313 51 0 C50.25426076 5.06314291 48.34209112 9.64873118 46.5078125 14.39453125 C46.16120575 15.30071701 45.814599 16.20690277 45.45748901 17.14054871 C44.35037478 20.03263935 43.23781538 22.92259887 42.125 25.8125 C41.38374485 27.74530095 40.64285553 29.67824225 39.90234375 31.61132812 C38.85409303 34.34749323 37.80533352 37.0834496 36.75369263 39.8183136 C34.81133215 44.86996325 32.8933454 49.92976569 31 55 C27.37 55 23.74 55 20 55 C19.35768433 53.23124512 19.35768433 53.23124512 18.70239258 51.42675781 C17.09307915 46.99750293 15.48004877 42.56960898 13.8659668 38.14208984 C13.17161326 36.23587616 12.47823064 34.32930849 11.78588867 32.42236328 C6.60656727 18.12830434 6.60656727 18.12830434 0.8190918 4.07324219 C0 2 0 2 0 0 Z " fill="#0A0A0A" transform="translate(61,24)"/>
<path d="M0 0 C2.31 0 4.62 0 7 0 C8.231394 2.46278801 8.07159196 4.2795055 8 7 C5.36 7 2.72 7 0 7 C0 4.69 0 2.38 0 0 Z " fill="#B6B6B6" transform="translate(52,122)"/>
<path d="M0 0 C1.32 0 2.64 0 4 0 C3.67 0.66 3.34 1.32 3 2 C3.99 3.485 3.99 3.485 5 5 C5 8.16785869 4.44444825 9.28103859 3 12 C2.67 12.99 2.34 13.98 2 15 C2.66 15.33 3.32 15.66 4 16 C2.68 15.67 1.36 15.34 0 15 C-0.33 11.7 -0.66 8.4 -1 5 C0.32 5.33 1.64 5.66 3 6 C3 5.34 3 4.68 3 4 C1.68 3.34 0.36 2.68 -1 2 C-0.67 1.34 -0.34 0.68 0 0 Z " fill="#ABABAB" transform="translate(156,113)"/>
<path d="M0 0 C2.125 0.375 2.125 0.375 4 1 C4 2.65 4 4.3 4 6 C2.35 6.33 0.7 6.66 -1 7 C-1.625 4.625 -1.625 4.625 -2 2 C-1.34 1.34 -0.68 0.68 0 0 Z " fill="#C3C3C3" transform="translate(85,16)"/>
<path d="M0 0 C1.32 0 2.64 0 4 0 C4 1.98 4 3.96 4 6 C2.35 6.33 0.7 6.66 -1 7 C-1.625 4.625 -1.625 4.625 -2 2 C-1.34 1.34 -0.68 0.68 0 0 Z " fill="#C2C2C2" transform="translate(188,32)"/>
<path d="M0 0 C1.32 0.33 2.64 0.66 4 1 C4 2.65 4 4.3 4 6 C2.68 6.33 1.36 6.66 0 7 C-0.66 5.68 -1.32 4.36 -2 3 C-1.34 2.01 -0.68 1.02 0 0 Z " fill="#C6C6C6" transform="translate(138,32)"/>
<path d="M0 0 C2.0625 0.4375 2.0625 0.4375 4 1 C4 2.65 4 4.3 4 6 C2.0625 6.5625 2.0625 6.5625 0 7 C-1 6 -1 6 -1.125 3.5 C-1 1 -1 1 0 0 Z " fill="#C1C1C1" transform="translate(40,122)"/>
<path d="M0 0 C0.99 0.33 1.98 0.66 3 1 C3 2.98 3 4.96 3 7 C2.01 7.33 1.02 7.66 0 8 C-0.66 7.67 -1.32 7.34 -2 7 C-2.125 4.625 -2.125 4.625 -2 2 C-1.34 1.34 -0.68 0.68 0 0 Z " fill="#B4B4B4" transform="translate(157,131)"/>
<path d="M0 0 C1.65 0 3.3 0 5 0 C4.67 0.66 4.34 1.32 4 2 C3.34 1.67 2.68 1.34 2 1 C2 1.66 2 2.32 2 3 C2.66 3.33 3.32 3.66 4 4 C3.34 4 2.68 4 2 4 C2 4.66 2 5.32 2 6 C3.32 5.67 4.64 5.34 6 5 C6 5.66 6 6.32 6 7 C4.02 7 2.04 7 0 7 C0 4.69 0 2.38 0 0 Z " fill="#949494" transform="translate(155,149)"/>
<path d="M0 0 C1.65 0 3.3 0 5 0 C4.67 0.66 4.34 1.32 4 2 C3.67 2.99 3.34 3.98 3 5 C3.33 4.67 3.66 4.34 4 4 C4.33 4.99 4.66 5.98 5 7 C3.02 7 1.04 7 -1 7 C-0.67 4.69 -0.34 2.38 0 0 Z " fill="#929292" transform="translate(84,43)"/>
<path d="M0 0 C2.475 0.495 2.475 0.495 5 1 C5 2.65 5 4.3 5 6 C3.33333333 6 1.66666667 6 0 6 C0 4.02 0 2.04 0 0 Z " fill="#A4A4A4" transform="translate(155,32)"/>
<path d="M0 0 C0.99 0 1.98 0 3 0 C2.1875 2.9375 2.1875 2.9375 1 6 C0.01 6.33 -0.98 6.66 -2 7 C-2.66 5.02 -3.32 3.04 -4 1 C-3.01 1.33 -2.02 1.66 -1 2 C-0.67 1.34 -0.34 0.68 0 0 Z " fill="#B1B1B1" transform="translate(87,8)"/>
<path d="M0 0 C2.475 0.495 2.475 0.495 5 1 C4.67 1.99 4.34 2.98 4 4 C3.01 4 2.02 4 1 4 C1 4.66 1 5.32 1 6 C1.66 6.33 2.32 6.66 3 7 C2.01 7 1.02 7 0 7 C0 4.69 0 2.38 0 0 Z " fill="#AFAFAF" transform="translate(143,32)"/>
<path d="M0 0 C2.475 0.495 2.475 0.495 5 1 C5 1.99 5 2.98 5 4 C4.01 4 3.02 4 2 4 C2.33 4.99 2.66 5.98 3 7 C2.01 6.67 1.02 6.34 0 6 C0 4.02 0 2.04 0 0 Z " fill="#9E9E9E" transform="translate(45,122)"/>
</svg>
